<?xml version="1.0" encoding="utf-8"?>
<!-- Generator: Adobe Illustrator 15.1.0, SVG Export Plug-In . SVG Version: 6.00 Build 0)  -->
<!DOCTYPE svg PUBLIC "-//W3C//DTD SVG 1.1//EN" "http://www.w3.org/Graphics/SVG/1.1/DTD/svg11.dtd">
<svg version="1.1" id="Layer_1" xmlns="http://www.w3.org/2000/svg" xmlns:xlink="http://www.w3.org/1999/xlink" x="0px" y="0px"
	 width="150px" height="179px" viewBox="0 0 150 179" enable-background="new 0 0 150 179" xml:space="preserve">
<polygon points="105.064,10.617 46.696,10.617 7.963,37.086 32.5,156.479 75.982,174.561 119.463,156.479 143.715,38.476 
	144.002,37.082 "/>
<polygon fill="#194883" stroke="#194883" stroke-miterlimit="10" points="17.073,50.25 35.601,140.622 134.891,50.25 "/>
<path fill="#FFFFFF" d="M62.715,71.571h-1.497H48.933v3.452c2.514,0,3.77,0.646,3.77,1.937v2.021c0,0.702-0.188,1.326-0.566,1.874
	c-0.376,0.547-0.886,1.01-1.528,1.389c-0.643,0.379-1.376,0.674-2.2,0.885c-0.824,0.21-1.697,0.315-2.619,0.315
	c-1.256,0-2.402-0.154-3.434-0.463c-1.034-0.309-1.92-0.884-2.66-1.726c-0.741-0.842-1.306-2.014-1.697-3.516
	c-0.392-1.501-0.586-3.445-0.586-5.831c0-3.761,0.67-6.68,2.011-8.757c1.34-2.077,3.574-3.116,6.702-3.116
	c2.122,0,3.833,0.61,5.132,1.832c1.298,1.22,2.158,2.926,2.577,5.115l4.23-0.379V56.331H53.96l-0.921,2.147
	c-0.895-0.841-2.109-1.522-3.646-2.042c-1.536-0.519-3.394-0.779-5.571-0.779c-2.011,0-3.937,0.31-5.781,0.926
	c-1.844,0.618-3.464,1.586-4.859,2.905c-1.398,1.319-2.507,3.004-3.331,5.052c-0.824,2.049-1.236,4.52-1.236,7.41
	c0,3.031,0.419,5.592,1.257,7.683c0.837,2.091,1.948,3.775,3.33,5.052c1.383,1.278,2.954,2.197,4.713,2.758
	c1.759,0.562,3.561,0.842,5.404,0.842c1.285,0,2.45-0.099,3.498-0.295c1.048-0.197,1.969-0.448,2.765-0.758
	c0.795-0.309,1.466-0.659,2.01-1.053c0.544-0.393,0.97-0.785,1.277-1.179l0.88,2.61h5.195V76.96c0-1.152,1.008-1.787,3.011-1.911
	c1.989,0.122,2.991,0.756,2.991,1.911v14.272c0,1.6-0.105,2.926-0.314,3.979c-0.21,1.053-0.516,1.9-0.921,2.547
	c-0.406,0.646-0.922,1.102-1.55,1.368c-0.629,0.267-1.363,0.399-2.2,0.399c-0.979,0-1.879-0.217-2.703-0.652
	c-0.823-0.436-1.333-1.031-1.527-1.789c0.976-0.084,1.752-0.449,2.325-1.095c0.571-0.646,0.858-1.417,0.858-2.316
	c0-1.065-0.328-1.907-0.984-2.526c-0.656-0.617-1.585-0.926-2.786-0.926c-1.341,0-2.409,0.422-3.206,1.264
	c-0.795,0.842-1.194,1.979-1.194,3.41c0,1.348,0.258,2.562,0.775,3.643c0.517,1.08,1.243,1.984,2.179,2.715
	c0.936,0.73,2.045,1.291,3.33,1.684c1.285,0.394,2.709,0.59,4.273,0.59c1.815,0,3.469-0.23,4.963-0.694
	c1.495-0.463,2.779-1.157,3.855-2.084c1.074-0.927,1.905-2.068,2.492-3.433c0.587-1.358,0.88-2.953,0.88-4.776V76.96
	c0-1.291,1.257-1.937,3.771-1.937V71.57L62.715,71.571L62.715,71.571z"/>
<path fill="#FFFFFF" d="M103.068,15.5H48.706L12.831,40.076L35.69,151.579l40.292,16.796l40.291-16.796l22.859-111.506L103.068,15.5
	z M49.635,18.5h52.508l33.65,22.927l-1.279,6.239H17.45l-1.28-6.242L49.635,18.5z M131.496,50.667l-95.628,86.841L18.064,50.667
	H131.496z M113.652,149.421l-37.67,15.704l-37.671-15.704l-1.742-8.497l96.859-87.959L113.652,149.421z"/>
<g enable-background="new    ">
	<path fill="#FFFFFF" d="M38.296,37.215c0-3.565,1.979-7.236,5.589-7.236c1.314,0,3.339,0.559,3.339,2.19
		c0,0.876-0.604,1.375-1.556,1.375c-0.62,0,0.211-1.42-1.707-1.42c-2.387,0-3.218,2.703-3.218,4.804
		c0,1.646,0.468,3.384,2.447,3.384c0.937,0,1.949-0.394,1.949-1.45c0-1.224-1.193-1.33-1.193-1.723c0-0.196,2.598-1.133,2.78-1.133
		c0.302,0,0.649,3.686,0.649,4.139c0,1.979-1.964,2.855-3.837,2.855C40.033,43,38.296,40.583,38.296,37.215z"/>
	<path fill="#FFFFFF" d="M48.367,41.323c0-0.906,0.755-1.646,1.662-1.646c0.952,0,1.722,0.725,1.722,1.661
		c0,0.938-0.771,1.662-1.707,1.662S48.367,42.245,48.367,41.323z"/>
	<path fill="#FFFFFF" d="M61.127,30.205c0.302,0,0.786-0.423,0.786,7.72c0,5.498-2.81,5.075-3.036,5.075
		c-1.178,0-2.251-0.831-2.251-1.224c0-0.71,0.619-2.372,0.952-2.372c0.242,0,0.499,1.073,0.967,1.073
		c0.453,0,0.921,0.453,0.921-3.399c0-4.139-0.771-6.495-0.771-6.677c0-0.257,0.272-0.196,0.454-0.196H61.127z"/>
	<path fill="#FFFFFF" d="M69.916,42.773c-0.136,0-0.574,0.045-0.574-0.182c0-0.423,1.164-1.934,1.164-3.655
		c0-0.68-0.65-0.937-1.33-0.937c-1.375,0-3.565,0.241-3.565,1.964c0,1.193,0.982,2.478,0.982,2.704c0,0.091-0.091,0.105-0.287,0.105
		h-2.16c-0.771,0-0.982-1.359-0.982-3.323c0-6.466,4.486-9.472,5.151-9.472c0.499,0,4.396,2.16,4.396,9.17
		c0,4.033-0.649,3.625-1.103,3.625H69.916z M65.943,36.066c0,0.182,0.106,0.287,0.287,0.287c0.272,0,1.737-0.393,3.067-0.393
		c0.528,0,0.77-0.076,0.77-0.499c0-0.937-1.118-2.9-1.692-2.9C67.56,32.562,65.943,34.964,65.943,36.066z"/>
	<path fill="#FFFFFF" d="M73.582,36.837c0-3.278,1.843-6.858,5.514-6.858c1.314,0,3.338,0.559,3.338,2.19
		c0,0.876-0.604,1.375-1.556,1.375c-0.619,0,0.212-1.42-1.707-1.42c-2.206,0-3.142,2.25-3.142,4.139
		c0,2.886,1.963,4.049,3.277,4.049c2.463,0,2.674-2.206,2.811-2.206c0.211,0,0.332,1.209,0.332,1.359
		c0,2.236-1.723,3.535-3.837,3.535C75.183,43,73.582,39.888,73.582,36.837z"/>
	<path fill="#FFFFFF" d="M87.564,43c-3.051,0-4.244-2.19-4.244-4.804c0-3.882,2.175-8.218,5-8.218c2.824,0,5,4.336,5,8.218
		c0,2.613-1.193,4.804-4.244,4.804H87.564z M90.873,37.864c0-3.339-1.541-5.438-2.553-5.438s-2.553,2.1-2.553,5.438
		c0,1.767,0.951,2.447,2.553,2.447S90.873,39.631,90.873,37.864z"/>
	<path fill="#FFFFFF" d="M95.279,42.773c-0.378,0-0.831,0.287-0.831-5.378c0-7.462,0.786-7.19,1.042-7.19h3.912
		c2.674,0,3.082,1.238,3.082,2.205c0,1.662-1.722,2.629-1.722,3.098c0,0.528,2.433,1.752,2.433,4.351
		c0,1.479-0.893,2.915-3.369,2.915H95.279z M98.965,34.57c0.438-0.316,1.072-1.057,1.072-1.677c0-0.725-0.635-0.906-1.208-0.906
		c-1.495,0-2.175,0.649-2.175,3.007c0,0.302-0.031,0.694,0.393,0.694c0.181,0,0.574-0.166,0.815-0.332L98.965,34.57z M97.395,37.441
		c-0.408,0.227-0.65,0.316-0.65,0.815c0,2.296,0.574,2.583,1.812,2.583c1.088,0,2.191-0.423,2.191-1.602
		c0-1.072-1.33-2.583-1.738-2.583c-0.195,0-0.468,0.166-0.634,0.257L97.395,37.441z"/>
	<path fill="#FFFFFF" d="M108.521,32.018c-0.755,0-1.722,0.378-1.722,1.254c0,1.088,1.495,1.511,2.327,1.798
		c3.172,1.058,3.821,2.583,3.821,4.019c0,1.752-1.254,3.912-4.441,3.912c-2.146,0-4.32-1.148-4.32-3.55
		c0-1.284,0.771-2.039,0.921-2.039c0.258,0,0,3.066,3.248,3.066c1.148,0,2.146-0.499,2.146-1.436c0-1.103-1.36-1.556-2.235-1.827
		c-3.309-1.027-3.672-2.523-3.672-3.808c0-1.269,0.861-3.429,3.928-3.429c2.191,0,3.746,1.163,3.746,1.602
		c0,0.423-0.785,1.797-1.207,1.797C110.682,33.377,110.094,32.018,108.521,32.018z"/>
</g>
<path fill="#FFFFFF" d="M115.941,73.029c4.043-1.288,6.037-4.627,8.998-6.999C120.907,67.163,118.941,68.985,115.941,73.029z"/>
<path fill="#FFFFFF" d="M121.35,76.55c3.332-0.667,5.428-2.57,4.998-6.999C121.873,69.076,121.346,72.547,121.35,76.55z"/>
<path fill="#FFFFFF" d="M113.878,87.027c-2.687-5.67,1.972-4.749,3.999-7.999C110.398,73.926,105.109,86.171,113.878,87.027z"/>
<path fill="#FFFFFF" d="M101.879,92.025c6.713,2.303,6.713-8.299,0-5.999C101.879,88.027,101.879,90.027,101.879,92.025z"/>
<path fill="#FFFFFF" d="M118.895,88.027c-0.302,2.635,1.385,3.282,4,3c0-1.333,0-2.667,0-4
	C121.15,86.952,119.783,87.25,118.895,88.027z"/>
<path fill="#FFFFFF" d="M114.877,92.025c-1.666,0-3.332,0-4.998,0C108.682,97.727,115.057,95.902,114.877,92.025z"/>
<path fill="#FFFFFF" d="M95.893,103.497c5.196,0.198,6.297-3.702,7.998-6.999c-2.355,0.021-2.943-1.723-5.998-1
	C97.738,98.678,95.624,99.896,95.893,103.497z"/>
<path fill="#FFFFFF" d="M92.575,102.504c-0.263-2.927,2.26-3.072,2-5.999C89.93,95.045,87.207,102.688,92.575,102.504z"/>
<path fill="#FFFFFF" d="M119.877,105.025c0.698-3.698-1.582-4.418-5-4C115.229,103.797,117.873,106.911,119.877,105.025z"/>
<path fill="#FFFFFF" d="M116.055,113.963c2.688-3.757-2.871-12.15-7.998-7.998C111.218,108.135,110.089,114.596,116.055,113.963z"/>
<path fill="#FFFFFF" d="M79.475,107.984c1.115,6.567,8.76,0.515,10.998-1c0.055-1.721-0.77-2.562-2-3
	C86.689,106.535,83.896,108.074,79.475,107.984z"/>
<path fill="#FFFFFF" d="M72.371,114.839c3.088,1.308,5.672-2.837,3-3.999C74.964,112.766,71.494,111.629,72.371,114.839z"/>
<path fill="#FFFFFF" d="M84.881,116.023c4.432-1.236,9.816-1.517,10.999-6C90.206,110.016,85.996,111.473,84.881,116.023z"/>
<path fill="#FFFFFF" d="M99.379,114.023c2.48,0.146,4.854,0.187,5-2C101.898,111.877,99.527,111.838,99.379,114.023z"/>
<path fill="#FFFFFF" d="M77.883,116.023c1.002-0.004,1.189,0.81,1.999,1c-0.095-1.571,0.134-3.467-1.999-3
	C77.883,114.689,77.883,115.357,77.883,116.023z"/>
<path fill="#FFFFFF" d="M69.883,119.023c0.181-2.183-0.818-3.183-3-3C66.702,118.205,67.702,119.205,69.883,119.023z"/>
<path fill="#FFFFFF" d="M71.883,120.023c-0.542,5.01,8.074,3.26,7.999,0C78.428,118.553,73.337,118.553,71.883,120.023z"/>
<path fill="#FFFFFF" d="M92.691,127.021c0.836-2.162,2.588-3.41,2-6.998C87.578,115.625,85.292,126.834,92.691,127.021z"/>
<path fill="#FFFFFF" d="M108.879,126.021c2.457-2.576-1.07-4.806-3-5.998C104.08,121.939,105.598,126.18,108.879,126.021z"/>
<path fill="#FFFFFF" d="M57.353,130.477c2.222,2.314,3.898-0.34,6.999,0c-0.826-2.826,1.409-2.59,1-5
	C61.846,122.949,57.361,126.355,57.353,130.477z"/>
<path fill="#FFFFFF" d="M76.882,128.021c3.261,0.261,4.813-1.188,5-4C79.447,124.587,76.738,124.879,76.882,128.021z"/>
<path fill="#FFFFFF" d="M126.072,64.144c2.58-0.12,3.642-1.466,3.486-3.792C127.713,61.064,125.623,61.58,126.072,64.144z"/>
<path fill="#FFFFFF" d="M83.881,135.021c2.48-0.793,5.046-7.773,1-9C83.002,127.416,79.475,133.434,83.881,135.021z"/>
<path fill="#FFFFFF" d="M88.881,137.021c4.914,0.729,8.688-7.437,5-9C92.373,131.182,88.475,131.949,88.881,137.021z"/>
<path fill="#FFFFFF" d="M76.882,134.021c0.168-3.502-3.518-3.148-5-5C71.454,133.65,73.55,135.746,76.882,134.021z"/>
<path fill="#FFFFFF" d="M101.879,134.021c-0.443-1.892,1.359-6.026-2-5C98.293,130.516,98.418,134.723,101.879,134.021z"/>
<path fill="#FFFFFF" d="M59.385,137.904c4.508-0.625,10.022,3.461,10.999-1.999C67.808,132.029,59.861,132.09,59.385,137.904z"/>
<path fill="#FFFFFF" d="M113.878,135.021c-0.339-0.81-2.655-1.207-3,0C110.217,137.338,114.785,137.184,113.878,135.021z"/>
<path fill="#FFFFFF" d="M121.509,99.081c-0.245-0.587-1.925-0.874-2.175,0C118.854,100.76,122.166,100.648,121.509,99.081z"/>
<path fill="#FFFFFF" d="M106.619,102.928c-0.246-0.586-1.926-0.873-2.176,0C103.965,104.607,107.275,104.496,106.619,102.928z"/>
<path fill="#FFFFFF" d="M106.585,116.564c-0.339-0.81-2.655-1.207-3,0C102.924,118.882,107.492,118.729,106.585,116.564z"/>
<path fill="#FFFFFF" d="M104.322,141.122c-0.471,0.291-0.926,2.573-0.309,2.983C105.195,144.895,105.584,140.341,104.322,141.122z"
	/>
<path fill="#FFFFFF" d="M43.813,147.02c3.528,0.531,4.471,2.934,7.999,1c0.458-3.691,3.191-12.351-2-12.998
	C47.497,138.705,43.625,140.832,43.813,147.02z"/>
<path fill="#FFFFFF" d="M98.879,137.021c-0.043,1.375,0.473,2.194,1,2.998c2.635,0.303,3.282-1.385,3-3.998
	C101.139,135.945,99.77,136.244,98.879,137.021z"/>
<path fill="#FFFFFF" d="M76.882,145.02c2.933-1.434,5.619-3.707,4-6.998C75.947,137.451,75.173,141.639,76.882,145.02z"/>
<path fill="#FFFFFF" d="M86.881,144.02c3.163,3.558,11.648-1.789,6-3.998C91.342,141.814,87.02,140.825,86.881,144.02z"/>
<path fill="#FFFFFF" d="M62.884,143.02c1.329,1.299,3.72,1.318,4-1C64.381,141.896,63.753,140.111,62.884,143.02z"/>
<path fill="#FFFFFF" d="M99.879,144.52c2.917,1.471,2.917-4.47,0-3C99.879,142.52,99.879,143.52,99.879,144.52z"/>
<path fill="#FFFFFF" d="M57.885,147.02c3.41,0.754,3.9-3.818,1-4C58.57,144.372,57.461,144.93,57.885,147.02z"/>
<path fill="#FFFFFF" d="M64.884,148.02c3.996,3.424,5.489,0.828,10.999,1C76.209,143.702,64.93,141.516,64.884,148.02z"/>
<path fill="#FFFFFF" d="M83.881,147.02c2.917,1.471,2.917-4.47,0-3C83.881,145.02,83.881,146.02,83.881,147.02z"/>
<path fill="#FFFFFF" d="M87.881,148.02c0.237,3.097,2.782,3.883,4,6c0.575-2.092,2.479-2.854,2-6
	C91.543,147.711,89.75,146.062,87.881,148.02z"/>
<path fill="#FFFFFF" d="M98.879,149.02c0,1,0,2,0,3c3.049,0.049,5.092-0.908,6-3C103.602,147.652,100.158,147.652,98.879,149.02z"/>
<path fill="#FFFFFF" d="M64.884,155.02c-0.114-3.553-3.309-4.023-6.999-4C57.558,155.014,63.107,153.129,64.884,155.02z"/>
<path fill="#FFFFFF" d="M68.883,153.02c1,0,2,0,3,0c0.129-1.795-0.993-2.34-3-2C68.883,151.686,68.883,152.352,68.883,153.02z"/>
<path fill="#FFFFFF" d="M78.883,161.018c3.043,0.045,3.887-2.11,5.998-3c0.16-3.158,0.035-6.033-1.999-6.998
	C82.216,155.02,79.133,156.602,78.883,161.018z"/>
<path fill="#FFFFFF" d="M72.883,158.018c0.182-2.181-0.818-3.181-3-2.998C69.702,157.199,70.702,158.199,72.883,158.018z"/>
</svg>
